<svg height="480pt" viewBox="-8 0 480 480" width="480pt" xmlns="http://www.w3.org/2000/svg"><path d="m88 256h96v136h-96zm0 0" fill="#c99b50"/><path d="m120 256h32v32h-32zm0 0" fill="#b8eaee"/><path d="m184 256h96v136h-96zm0 0" fill="#daa857"/><path d="m216 256h32v32h-32zm0 0" fill="#ea6b65"/><path d="m280 256h96v136h-96zm0 0" fill="#c99b50"/><path d="m312 256h32v32h-32zm0 0" fill="#f3c52d"/><path d="m88 48h96v96h-96zm0 0" fill="#daa857"/><path d="m120 48h32v32h-32zm0 0" fill="#ffb1b5"/><path d="m184 48h96v96h-96zm0 0" fill="#c99b50"/><path d="m216 48h32v32h-32zm0 0" fill="#85bc94"/><path d="m280 48h96v96h-96zm0 0" fill="#daa857"/><path d="m312 48h32v32h-32zm0 0" fill="#4799cf"/><path d="m192 160h80v48h-80zm0 0" fill="#e4e4e2"/><path d="m192 160.664062h80v20h-80zm0 0" fill="#cbcbcb"/><path d="m8 384h448v32h-448zm0 0" fill="#9a826a"/><path d="m8 136h448v32h-448zm0 0" fill="#9a826a"/><path d="m8 152h448v16h-448zm0 0" fill="#8d7761"/><path d="m8 400h448v16h-448zm0 0" fill="#8d7761"/><path d="m24 8c8.835938 0 16 7.164062 16 16v448h-32v-448c0-8.835938 7.164062-16 16-16zm0 0" fill="#a88e74"/><path d="m440 8c8.835938 0 16 7.164062 16 16v448h-32v-448c0-8.835938 7.164062-16 16-16zm0 0" fill="#a88e74"/><path d="m440 0c-13.253906 0-24 10.746094-24 24v104h-32v-80c0-4.417969-3.582031-8-8-8h-288c-4.417969 0-8 3.582031-8 8v80h-32v-104c0-13.253906-10.746094-24-24-24s-24 10.746094-24 24v448c0 4.417969 3.582031 8 8 8h32c4.417969 0 8-3.582031 8-8v-48h368v48c0 4.417969 3.582031 8 8 8h32c4.417969 0 8-3.582031 8-8v-448c0-13.253906-10.746094-24-24-24zm-248 376v-112h16v24c0 4.417969 3.582031 8 8 8h32c4.417969 0 8-3.582031 8-8v-24h16v112zm-96 0v-112h16v24c0 4.417969 3.582031 8 8 8h32c4.417969 0 8-3.582031 8-8v-24h16v112zm32-112h16v16h-16zm96 0h16v16h-16zm64 0h16v24c0 4.417969 3.582031 8 8 8h32c4.417969 0 8-3.582031 8-8v-24h16v112h-80zm32 0h16v16h-16zm56-16h-288c-4.417969 0-8 3.582031-8 8v120h-32v-200h136v32c0 4.417969 3.582031 8 8 8h80c4.417969 0 8-3.582031 8-8v-32h136v200h-32v-120c0-4.417969-3.582031-8-8-8zm-176-72h64v24h-64zm168-48h-80v-72h16v24c0 4.417969 3.582031 8 8 8h32c4.417969 0 8-3.582031 8-8v-24h16zm-32-72v16h-16v-16zm-64 72h-80v-72h16v24c0 4.417969 3.582031 8 8 8h32c4.417969 0 8-3.582031 8-8v-24h16zm-32-72v16h-16v-16zm-96 0v16h-16v-16zm-48 0h16v24c0 4.417969 3.582031 8 8 8h32c4.417969 0 8-3.582031 8-8v-24h16v72h-80zm320 88v16h-368v-16zm-384 320h-16v-440c0-4.417969 3.582031-8 8-8s8 3.582031 8 8zm16-56v-16h368v16zm400 56h-16v-440c0-4.417969 3.582031-8 8-8s8 3.582031 8 8zm0 0"/></svg>